<mxfile host="app.diagrams.net" agent="Mozilla/5.0 (Macintosh; Intel Mac OS X 10_15_7) AppleWebKit/537.36 (KHTML, like Gecko) Chrome/134.0.0.0 Safari/537.36" version="24.7.10">
  <diagram name="Page-1" id="wEU7Mr5ZkBl2fQoYExHf">
    <mxGraphModel dx="927" dy="585" grid="1" gridSize="10" guides="1" tooltips="1" connect="1" arrows="1" fold="1" page="1" pageScale="1" pageWidth="827" pageHeight="1169" math="0" shadow="0">
      <root>
        <mxCell id="0" />
        <mxCell id="1" parent="0" />
        <mxCell id="k7DyWZHuKouSKz-YKeAz-1" value="" style="endArrow=none;html=1;rounded=0;" edge="1" parent="1">
          <mxGeometry width="50" height="50" relative="1" as="geometry">
            <mxPoint x="200" y="540" as="sourcePoint" />
            <mxPoint x="190" y="320" as="targetPoint" />
          </mxGeometry>
        </mxCell>
        <mxCell id="k7DyWZHuKouSKz-YKeAz-2" value="" style="endArrow=none;html=1;rounded=0;" edge="1" parent="1">
          <mxGeometry width="50" height="50" relative="1" as="geometry">
            <mxPoint x="190" y="320" as="sourcePoint" />
            <mxPoint x="280" y="320" as="targetPoint" />
          </mxGeometry>
        </mxCell>
        <mxCell id="k7DyWZHuKouSKz-YKeAz-3" value="" style="endArrow=none;html=1;rounded=0;" edge="1" parent="1">
          <mxGeometry width="50" height="50" relative="1" as="geometry">
            <mxPoint x="280" y="320" as="sourcePoint" />
            <mxPoint x="280" y="240" as="targetPoint" />
          </mxGeometry>
        </mxCell>
        <mxCell id="k7DyWZHuKouSKz-YKeAz-4" value="" style="endArrow=none;html=1;rounded=0;" edge="1" parent="1">
          <mxGeometry width="50" height="50" relative="1" as="geometry">
            <mxPoint x="280" y="240" as="sourcePoint" />
            <mxPoint x="350" y="240" as="targetPoint" />
          </mxGeometry>
        </mxCell>
        <mxCell id="k7DyWZHuKouSKz-YKeAz-5" value="" style="endArrow=none;html=1;rounded=0;" edge="1" parent="1">
          <mxGeometry width="50" height="50" relative="1" as="geometry">
            <mxPoint x="350" y="240" as="sourcePoint" />
            <mxPoint x="350" y="170" as="targetPoint" />
          </mxGeometry>
        </mxCell>
        <mxCell id="k7DyWZHuKouSKz-YKeAz-6" value="" style="endArrow=none;html=1;rounded=0;" edge="1" parent="1">
          <mxGeometry width="50" height="50" relative="1" as="geometry">
            <mxPoint x="350" y="170" as="sourcePoint" />
            <mxPoint x="820" y="170" as="targetPoint" />
          </mxGeometry>
        </mxCell>
        <mxCell id="k7DyWZHuKouSKz-YKeAz-7" value="" style="ellipse;whiteSpace=wrap;html=1;aspect=fixed;" vertex="1" parent="1">
          <mxGeometry x="300" y="310" width="10" height="10" as="geometry" />
        </mxCell>
        <mxCell id="k7DyWZHuKouSKz-YKeAz-8" value="" style="ellipse;whiteSpace=wrap;html=1;aspect=fixed;" vertex="1" parent="1">
          <mxGeometry x="300" y="290" width="10" height="10" as="geometry" />
        </mxCell>
        <mxCell id="k7DyWZHuKouSKz-YKeAz-9" value="" style="ellipse;whiteSpace=wrap;html=1;aspect=fixed;" vertex="1" parent="1">
          <mxGeometry x="300" y="260" width="10" height="10" as="geometry" />
        </mxCell>
        <mxCell id="k7DyWZHuKouSKz-YKeAz-13" value="" style="ellipse;whiteSpace=wrap;html=1;aspect=fixed;" vertex="1" parent="1">
          <mxGeometry x="330" y="260" width="10" height="10" as="geometry" />
        </mxCell>
        <mxCell id="k7DyWZHuKouSKz-YKeAz-14" value="" style="ellipse;whiteSpace=wrap;html=1;aspect=fixed;" vertex="1" parent="1">
          <mxGeometry x="360" y="260" width="10" height="10" as="geometry" />
        </mxCell>
        <mxCell id="k7DyWZHuKouSKz-YKeAz-15" value="" style="ellipse;whiteSpace=wrap;html=1;aspect=fixed;" vertex="1" parent="1">
          <mxGeometry x="380" y="240" width="10" height="10" as="geometry" />
        </mxCell>
        <mxCell id="k7DyWZHuKouSKz-YKeAz-16" value="" style="ellipse;whiteSpace=wrap;html=1;aspect=fixed;" vertex="1" parent="1">
          <mxGeometry x="380" y="210" width="10" height="10" as="geometry" />
        </mxCell>
        <mxCell id="k7DyWZHuKouSKz-YKeAz-17" value="" style="ellipse;whiteSpace=wrap;html=1;aspect=fixed;" vertex="1" parent="1">
          <mxGeometry x="380" y="190" width="10" height="10" as="geometry" />
        </mxCell>
        <mxCell id="k7DyWZHuKouSKz-YKeAz-18" value="" style="ellipse;whiteSpace=wrap;html=1;aspect=fixed;" vertex="1" parent="1">
          <mxGeometry x="414" y="190" width="10" height="10" as="geometry" />
        </mxCell>
        <mxCell id="k7DyWZHuKouSKz-YKeAz-19" value="" style="ellipse;whiteSpace=wrap;html=1;aspect=fixed;" vertex="1" parent="1">
          <mxGeometry x="444" y="190" width="10" height="10" as="geometry" />
        </mxCell>
        <mxCell id="k7DyWZHuKouSKz-YKeAz-20" value="" style="ellipse;whiteSpace=wrap;html=1;aspect=fixed;" vertex="1" parent="1">
          <mxGeometry x="480" y="190" width="10" height="10" as="geometry" />
        </mxCell>
        <mxCell id="k7DyWZHuKouSKz-YKeAz-21" value="" style="ellipse;whiteSpace=wrap;html=1;aspect=fixed;" vertex="1" parent="1">
          <mxGeometry x="514" y="190" width="10" height="10" as="geometry" />
        </mxCell>
        <mxCell id="k7DyWZHuKouSKz-YKeAz-22" value="" style="ellipse;whiteSpace=wrap;html=1;aspect=fixed;" vertex="1" parent="1">
          <mxGeometry x="544" y="190" width="10" height="10" as="geometry" />
        </mxCell>
        <mxCell id="k7DyWZHuKouSKz-YKeAz-23" value="" style="ellipse;whiteSpace=wrap;html=1;aspect=fixed;" vertex="1" parent="1">
          <mxGeometry x="580" y="190" width="10" height="10" as="geometry" />
        </mxCell>
        <mxCell id="k7DyWZHuKouSKz-YKeAz-24" value="" style="ellipse;whiteSpace=wrap;html=1;aspect=fixed;" vertex="1" parent="1">
          <mxGeometry x="614" y="190" width="10" height="10" as="geometry" />
        </mxCell>
        <mxCell id="k7DyWZHuKouSKz-YKeAz-25" value="" style="ellipse;whiteSpace=wrap;html=1;aspect=fixed;" vertex="1" parent="1">
          <mxGeometry x="644" y="190" width="10" height="10" as="geometry" />
        </mxCell>
        <mxCell id="k7DyWZHuKouSKz-YKeAz-26" value="" style="ellipse;whiteSpace=wrap;html=1;aspect=fixed;" vertex="1" parent="1">
          <mxGeometry x="680" y="190" width="10" height="10" as="geometry" />
        </mxCell>
        <mxCell id="k7DyWZHuKouSKz-YKeAz-27" value="" style="ellipse;whiteSpace=wrap;html=1;aspect=fixed;" vertex="1" parent="1">
          <mxGeometry x="714" y="190" width="10" height="10" as="geometry" />
        </mxCell>
        <mxCell id="k7DyWZHuKouSKz-YKeAz-28" value="" style="ellipse;whiteSpace=wrap;html=1;aspect=fixed;" vertex="1" parent="1">
          <mxGeometry x="744" y="190" width="10" height="10" as="geometry" />
        </mxCell>
        <mxCell id="k7DyWZHuKouSKz-YKeAz-54" value="" style="endArrow=none;html=1;rounded=0;" edge="1" parent="1">
          <mxGeometry width="50" height="50" relative="1" as="geometry">
            <mxPoint x="174" y="540" as="sourcePoint" />
            <mxPoint x="164" y="300" as="targetPoint" />
          </mxGeometry>
        </mxCell>
        <mxCell id="k7DyWZHuKouSKz-YKeAz-55" value="" style="endArrow=none;html=1;rounded=0;" edge="1" parent="1">
          <mxGeometry width="50" height="50" relative="1" as="geometry">
            <mxPoint x="164" y="300" as="sourcePoint" />
            <mxPoint x="254" y="300" as="targetPoint" />
          </mxGeometry>
        </mxCell>
        <mxCell id="k7DyWZHuKouSKz-YKeAz-56" value="" style="endArrow=none;html=1;rounded=0;" edge="1" parent="1">
          <mxGeometry width="50" height="50" relative="1" as="geometry">
            <mxPoint x="254" y="300" as="sourcePoint" />
            <mxPoint x="254" y="220" as="targetPoint" />
          </mxGeometry>
        </mxCell>
        <mxCell id="k7DyWZHuKouSKz-YKeAz-57" value="" style="endArrow=none;html=1;rounded=0;" edge="1" parent="1">
          <mxGeometry width="50" height="50" relative="1" as="geometry">
            <mxPoint x="254" y="220" as="sourcePoint" />
            <mxPoint x="324" y="220" as="targetPoint" />
          </mxGeometry>
        </mxCell>
        <mxCell id="k7DyWZHuKouSKz-YKeAz-58" value="" style="endArrow=none;html=1;rounded=0;" edge="1" parent="1">
          <mxGeometry width="50" height="50" relative="1" as="geometry">
            <mxPoint x="324" y="220" as="sourcePoint" />
            <mxPoint x="324" y="150" as="targetPoint" />
          </mxGeometry>
        </mxCell>
        <mxCell id="k7DyWZHuKouSKz-YKeAz-59" value="" style="endArrow=none;html=1;rounded=0;" edge="1" parent="1">
          <mxGeometry width="50" height="50" relative="1" as="geometry">
            <mxPoint x="324" y="150" as="sourcePoint" />
            <mxPoint x="820" y="150" as="targetPoint" />
          </mxGeometry>
        </mxCell>
        <mxCell id="k7DyWZHuKouSKz-YKeAz-61" value="" style="endArrow=none;html=1;rounded=0;" edge="1" parent="1">
          <mxGeometry width="50" height="50" relative="1" as="geometry">
            <mxPoint x="190" y="330" as="sourcePoint" />
            <mxPoint x="320" y="330" as="targetPoint" />
          </mxGeometry>
        </mxCell>
        <mxCell id="k7DyWZHuKouSKz-YKeAz-62" value="" style="endArrow=none;html=1;rounded=0;" edge="1" parent="1">
          <mxGeometry width="50" height="50" relative="1" as="geometry">
            <mxPoint x="320" y="330" as="sourcePoint" />
            <mxPoint x="320" y="280" as="targetPoint" />
          </mxGeometry>
        </mxCell>
        <mxCell id="k7DyWZHuKouSKz-YKeAz-63" value="" style="endArrow=none;html=1;rounded=0;" edge="1" parent="1">
          <mxGeometry width="50" height="50" relative="1" as="geometry">
            <mxPoint x="320" y="280" as="sourcePoint" />
            <mxPoint x="760" y="280" as="targetPoint" />
          </mxGeometry>
        </mxCell>
        <mxCell id="k7DyWZHuKouSKz-YKeAz-64" value="" style="endArrow=none;html=1;rounded=0;" edge="1" parent="1">
          <mxGeometry width="50" height="50" relative="1" as="geometry">
            <mxPoint x="200" y="540" as="sourcePoint" />
            <mxPoint x="760" y="540" as="targetPoint" />
          </mxGeometry>
        </mxCell>
        <mxCell id="k7DyWZHuKouSKz-YKeAz-66" value="" style="endArrow=none;html=1;rounded=0;" edge="1" parent="1">
          <mxGeometry width="50" height="50" relative="1" as="geometry">
            <mxPoint x="760" y="540" as="sourcePoint" />
            <mxPoint x="760" y="280" as="targetPoint" />
          </mxGeometry>
        </mxCell>
        <mxCell id="k7DyWZHuKouSKz-YKeAz-67" value="" style="endArrow=none;dashed=1;html=1;rounded=0;" edge="1" parent="1">
          <mxGeometry width="50" height="50" relative="1" as="geometry">
            <mxPoint x="200" y="540" as="sourcePoint" />
            <mxPoint x="190" y="310" as="targetPoint" />
          </mxGeometry>
        </mxCell>
        <mxCell id="k7DyWZHuKouSKz-YKeAz-68" value="" style="endArrow=none;dashed=1;html=1;dashPattern=1 3;strokeWidth=2;rounded=0;" edge="1" parent="1">
          <mxGeometry width="50" height="50" relative="1" as="geometry">
            <mxPoint x="190" y="310" as="sourcePoint" />
            <mxPoint x="230" y="310" as="targetPoint" />
          </mxGeometry>
        </mxCell>
        <mxCell id="k7DyWZHuKouSKz-YKeAz-69" value="" style="endArrow=none;dashed=1;html=1;rounded=0;" edge="1" parent="1">
          <mxGeometry width="50" height="50" relative="1" as="geometry">
            <mxPoint x="210" y="540" as="sourcePoint" />
            <mxPoint x="200" y="320" as="targetPoint" />
          </mxGeometry>
        </mxCell>
        <mxCell id="k7DyWZHuKouSKz-YKeAz-70" value="" style="endArrow=none;dashed=1;html=1;rounded=0;" edge="1" parent="1">
          <mxGeometry width="50" height="50" relative="1" as="geometry">
            <mxPoint x="200" y="320" as="sourcePoint" />
            <mxPoint x="230" y="320" as="targetPoint" />
          </mxGeometry>
        </mxCell>
        <mxCell id="k7DyWZHuKouSKz-YKeAz-71" value="" style="endArrow=none;dashed=1;html=1;rounded=0;" edge="1" parent="1">
          <mxGeometry width="50" height="50" relative="1" as="geometry">
            <mxPoint x="230" y="320" as="sourcePoint" />
            <mxPoint x="230" y="310" as="targetPoint" />
          </mxGeometry>
        </mxCell>
        <mxCell id="k7DyWZHuKouSKz-YKeAz-72" value="" style="rounded=0;whiteSpace=wrap;html=1;" vertex="1" parent="1">
          <mxGeometry x="404" y="210" width="356" height="60" as="geometry" />
        </mxCell>
        <mxCell id="k7DyWZHuKouSKz-YKeAz-73" value="" style="endArrow=none;dashed=1;html=1;dashPattern=1 3;strokeWidth=2;rounded=0;" edge="1" parent="1">
          <mxGeometry width="50" height="50" relative="1" as="geometry">
            <mxPoint x="200" y="600" as="sourcePoint" />
            <mxPoint x="240" y="600" as="targetPoint" />
          </mxGeometry>
        </mxCell>
        <mxCell id="k7DyWZHuKouSKz-YKeAz-74" value="Levegg" style="text;html=1;align=center;verticalAlign=middle;whiteSpace=wrap;rounded=0;" vertex="1" parent="1">
          <mxGeometry x="240" y="585" width="60" height="30" as="geometry" />
        </mxCell>
        <mxCell id="k7DyWZHuKouSKz-YKeAz-75" value="Blomsterbedd" style="text;html=1;align=center;verticalAlign=middle;whiteSpace=wrap;rounded=0;" vertex="1" parent="1">
          <mxGeometry x="544" y="225" width="60" height="30" as="geometry" />
        </mxCell>
        <mxCell id="k7DyWZHuKouSKz-YKeAz-76" value="" style="endArrow=none;html=1;rounded=0;" edge="1" parent="1">
          <mxGeometry width="50" height="50" relative="1" as="geometry">
            <mxPoint x="760" y="330" as="sourcePoint" />
            <mxPoint x="820" y="330" as="targetPoint" />
          </mxGeometry>
        </mxCell>
        <mxCell id="k7DyWZHuKouSKz-YKeAz-77" value="" style="endArrow=none;html=1;rounded=0;" edge="1" parent="1">
          <mxGeometry width="50" height="50" relative="1" as="geometry">
            <mxPoint x="760" y="510" as="sourcePoint" />
            <mxPoint x="820" y="510" as="targetPoint" />
          </mxGeometry>
        </mxCell>
        <mxCell id="k7DyWZHuKouSKz-YKeAz-80" value="" style="ellipse;whiteSpace=wrap;html=1;aspect=fixed;" vertex="1" parent="1">
          <mxGeometry x="780" y="190" width="10" height="10" as="geometry" />
        </mxCell>
        <mxCell id="k7DyWZHuKouSKz-YKeAz-81" value="" style="ellipse;whiteSpace=wrap;html=1;aspect=fixed;" vertex="1" parent="1">
          <mxGeometry x="810" y="190" width="10" height="10" as="geometry" />
        </mxCell>
        <mxCell id="k7DyWZHuKouSKz-YKeAz-82" value="Plen" style="text;html=1;align=center;verticalAlign=middle;whiteSpace=wrap;rounded=0;" vertex="1" parent="1">
          <mxGeometry x="767" y="250" width="60" height="30" as="geometry" />
        </mxCell>
        <mxCell id="k7DyWZHuKouSKz-YKeAz-83" value="Fliser" style="text;html=1;align=center;verticalAlign=middle;whiteSpace=wrap;rounded=0;" vertex="1" parent="1">
          <mxGeometry x="767" y="410" width="60" height="30" as="geometry" />
        </mxCell>
        <mxCell id="k7DyWZHuKouSKz-YKeAz-84" value="Platting" style="text;html=1;align=center;verticalAlign=middle;whiteSpace=wrap;rounded=0;" vertex="1" parent="1">
          <mxGeometry x="464" y="390" width="60" height="30" as="geometry" />
        </mxCell>
        <mxCell id="k7DyWZHuKouSKz-YKeAz-86" value="" style="ellipse;whiteSpace=wrap;html=1;aspect=fixed;" vertex="1" parent="1">
          <mxGeometry x="210" y="620" width="10" height="10" as="geometry" />
        </mxCell>
        <mxCell id="k7DyWZHuKouSKz-YKeAz-88" value="Hekk" style="text;html=1;align=center;verticalAlign=middle;whiteSpace=wrap;rounded=0;" vertex="1" parent="1">
          <mxGeometry x="240" y="610" width="60" height="30" as="geometry" />
        </mxCell>
      </root>
    </mxGraphModel>
  </diagram>
</mxfile>
